<?xml version="1.0" standalone="no"?>
<!DOCTYPE svg PUBLIC "-//W3C//DTD SVG 20010904//EN"
 "http://www.w3.org/TR/2001/REC-SVG-20010904/DTD/svg10.dtd">
<svg version="1.0" xmlns="http://www.w3.org/2000/svg"
 width="700.000000pt" height="700.000000pt" viewBox="0 0 700.000000 700.000000"
 preserveAspectRatio="xMidYMid meet">
<metadata>
Created by potrace 1.11, written by Peter Selinger 2001-2013
</metadata>
<g transform="translate(0.000000,700.000000) scale(0.100000,-0.100000)"
fill="#000000" stroke="none">
<path d="M4188 6595 c-2 -1 -34 -5 -73 -8 -85 -8 -237 -45 -324 -81 -358 -146
-613 -469 -717 -911 -19 -81 -40 -276 -39 -356 4 -162 16 -154 90 55 74 214
147 347 273 501 122 150 328 336 445 401 124 71 296 135 397 150 19 3 60 10
90 16 36 8 175 12 397 12 217 -1 340 3 336 9 -10 16 -153 77 -288 122 -114 38
-210 61 -337 80 -39 6 -245 14 -250 10z"/>
<path d="M1768 6287 c-68 -40 -242 -184 -330 -274 -207 -209 -331 -415 -388
-643 -28 -112 -34 -321 -13 -440 39 -219 140 -432 287 -605 58 -69 155 -164
206 -203 19 -15 41 -33 49 -40 26 -25 132 -94 167 -108 32 -13 34 -13 34 4 0
11 -32 61 -72 113 -161 210 -282 450 -332 655 -54 221 -55 522 -2 743 10 42
58 162 100 251 59 125 128 239 230 380 113 154 127 176 119 184 -9 9 -14 7
-55 -17z"/>
<path d="M5497 4994 c-1 -1 -41 -4 -88 -7 -153 -11 -359 -76 -563 -179 -98
-49 -166 -95 -156 -107 3 -3 7 -5 10 -4 3 1 32 4 65 8 33 3 67 8 75 10 8 2 38
7 65 10 28 3 61 8 75 10 192 33 458 20 669 -34 345 -89 630 -298 852 -626 108
-160 218 -369 253 -482 10 -31 26 -29 27 2 1 14 2 31 2 38 5 74 -24 234 -72
387 -68 221 -145 385 -236 505 -200 262 -447 408 -779 461 -35 5 -194 12 -199
8z"/>
<path d="M3402 4919 c-137 -25 -188 -149 -110 -262 33 -47 71 -59 188 -62 58
-1 119 -6 135 -10 111 -29 219 -133 258 -249 21 -61 22 -175 3 -237 -43 -140
-181 -258 -321 -274 -94 -11 -120 -17 -151 -36 -52 -31 -64 -71 -64 -202 0
-121 -1 -123 -50 -132 -23 -4 -93 -33 -130 -53 -187 -103 -318 -279 -360 -482
-11 -54 -14 -213 -6 -258 49 -241 179 -419 379 -517 100 -49 175 -66 298 -70
250 -7 439 78 590 265 152 188 192 479 98 706 -80 191 -248 350 -431 405 -47
15 -69 27 -74 41 -6 19 0 32 14 34 49 5 190 67 242 106 141 106 232 232 274
379 22 78 26 104 27 194 2 210 -60 370 -194 506 -111 112 -228 177 -370 204
-76 14 -179 16 -245 4z"/>
<path d="M213 3435 c3 -11 8 -54 12 -95 12 -152 22 -217 51 -331 92 -368 239
-604 499 -801 83 -63 207 -138 229 -138 8 0 18 -4 21 -10 7 -11 156 -60 203
-66 17 -2 49 -6 70 -9 45 -6 254 -6 302 0 153 20 280 48 360 81 93 39 300 148
331 175 l34 30 -60 -5 c-33 -2 -124 -14 -202 -25 -536 -79 -987 53 -1338 389
-205 196 -335 402 -476 750 -23 57 -46 92 -36 55z"/>
<path d="M5244 2975 c15 -24 53 -79 85 -122 107 -143 163 -240 251 -438 10
-24 48 -142 56 -176 54 -232 62 -473 22 -649 -5 -25 -12 -58 -15 -75 -20 -129
-152 -412 -273 -585 -153 -221 -181 -263 -176 -268 8 -8 96 47 181 113 219
170 393 370 497 571 34 64 98 237 103 274 1 8 5 29 8 45 16 70 23 259 12 315
-6 27 -11 55 -20 110 -10 59 -62 205 -101 282 -84 167 -230 348 -372 460 -37
29 -74 59 -82 67 -25 24 -177 121 -190 121 -7 0 -1 -18 14 -45z"/>
<path d="M3957 1843 c-9 -21 -36 -92 -61 -158 -58 -159 -106 -260 -172 -362
-168 -260 -376 -447 -639 -573 -230 -110 -368 -134 -750 -130 -299 2 -317 2
-348 1 -16 -1 -26 -5 -23 -10 14 -22 342 -146 455 -172 150 -34 457 -43 605
-18 334 55 659 318 827 667 75 155 121 330 135 512 9 103 6 262 -4 272 -5 5
-16 -8 -25 -29z"/>
</g>
</svg>
