<?xml version="1.0" standalone="no"?>
<!DOCTYPE svg PUBLIC "-//W3C//DTD SVG 20010904//EN"
 "http://www.w3.org/TR/2001/REC-SVG-20010904/DTD/svg10.dtd">
<svg version="1.0" xmlns="http://www.w3.org/2000/svg"
 width="2638.000000pt" height="2638.000000pt" viewBox="0 0 2638.000000 2638.000000"
 preserveAspectRatio="xMidYMid meet">
<metadata>
Created by potrace 1.11, written by Peter Selinger 2001-2013
</metadata>
<g transform="translate(0.000000,2638.000000) scale(0.100000,-0.100000)"
fill="#000000" stroke="none">
<path d="M18328 23955 c-2 -1 -86 -5 -188 -9 -102 -3 -201 -8 -220 -10 -19 -3
-75 -7 -125 -11 -49 -4 -103 -8 -120 -11 -16 -2 -57 -6 -90 -9 -33 -2 -76 -7
-95 -10 -19 -2 -55 -7 -80 -9 -95 -10 -385 -56 -537 -85 -210 -41 -198 -38
-378 -82 -506 -121 -714 -171 -735 -175 -14 -3 -41 -9 -60 -14 -19 -5 -46 -11
-60 -14 -14 -2 -47 -10 -75 -16 -27 -7 -59 -14 -70 -15 -11 -2 -20 -4 -20 -5
0 -1 -13 -4 -30 -6 -16 -2 -59 -11 -95 -19 -36 -8 -81 -17 -100 -20 -19 -3
-47 -8 -62 -11 -15 -3 -42 -7 -60 -10 -76 -11 -91 -13 -116 -18 -15 -3 -43 -8
-62 -11 -19 -3 -60 -10 -90 -15 -30 -5 -73 -12 -95 -15 -23 -3 -52 -8 -65 -10
-14 -3 -43 -8 -65 -10 -22 -3 -51 -7 -65 -10 -33 -6 -64 -11 -190 -30 -92 -14
-143 -22 -325 -50 -22 -4 -96 -15 -164 -26 -138 -22 -442 -66 -511 -74 -25 -2
-63 -8 -85 -11 -22 -4 -51 -8 -65 -9 -14 -2 -52 -6 -85 -9 -33 -4 -75 -8 -94
-11 -19 -2 -73 -7 -120 -10 -47 -4 -97 -8 -111 -10 -115 -19 -955 -26 -1445
-12 -505 14 -778 25 -865 32 -25 2 -81 7 -125 10 -44 3 -98 8 -120 10 -22 3
-76 7 -120 11 -44 3 -96 7 -115 9 -309 27 -727 27 -885 -1 -16 -2 -55 -9 -85
-14 -30 -6 -68 -12 -85 -15 -33 -6 -95 -17 -110 -21 -5 -1 -59 -11 -120 -23
-711 -136 -1136 -437 -1209 -857 -3 -17 -13 -66 -21 -110 -9 -43 -18 -95 -21
-114 -2 -19 -10 -59 -15 -89 -6 -30 -12 -64 -14 -75 -2 -19 -10 -75 -20 -146
-22 -148 -32 -452 -50 -1455 -24 -1408 -25 -1449 -56 -1513 -22 -45 -65 -83
-113 -102 -17 -6 -167 -47 -335 -91 -168 -43 -328 -86 -356 -94 -27 -8 -90
-25 -140 -39 -689 -184 -1266 -403 -1740 -659 -151 -82 -456 -270 -520 -320
-5 -4 -57 -42 -115 -85 -120 -88 -110 -80 -250 -199 -122 -104 -297 -284 -364
-375 -26 -35 -53 -71 -61 -80 -8 -9 -42 -63 -76 -120 -165 -272 -254 -570
-284 -943 -5 -69 -6 -394 -1 -425 2 -14 7 -54 11 -90 44 -458 227 -907 569
-1394 199 -285 515 -636 786 -876 47 -41 90 -79 96 -85 6 -5 29 -25 52 -43 22
-18 53 -44 69 -58 39 -35 327 -252 388 -294 218 -148 272 -183 365 -240 284
-176 737 -416 1118 -594 86 -40 135 -77 120 -91 -2 -2 -41 -6 -88 -10 -47 -3
-96 -8 -110 -10 -14 -2 -61 -6 -105 -10 -44 -3 -102 -8 -130 -11 -27 -2 -72
-6 -100 -8 -79 -6 -207 -18 -245 -21 -19 -2 -73 -7 -120 -10 -47 -4 -101 -8
-120 -10 -19 -2 -73 -6 -120 -10 -47 -4 -101 -8 -120 -10 -19 -2 -75 -6 -125
-10 -49 -4 -106 -8 -125 -10 -19 -2 -73 -6 -120 -10 -47 -3 -105 -8 -130 -10
-25 -2 -83 -7 -130 -10 -47 -3 -103 -8 -125 -10 -22 -2 -85 -7 -140 -10 -55
-4 -116 -8 -135 -10 -19 -2 -80 -6 -135 -10 -55 -3 -125 -8 -155 -11 -59 -4
-147 -10 -295 -19 -49 -3 -121 -8 -160 -10 -199 -14 -449 -27 -715 -39 -80 -4
-179 -9 -220 -11 -229 -12 -874 -31 -1403 -39 -109 -2 -200 -6 -203 -9 -3 -2
1 -11 8 -18 11 -12 52 -61 158 -193 8 -10 20 -23 25 -30 6 -6 39 -47 75 -91
35 -44 67 -82 70 -85 3 -3 35 -41 70 -85 36 -44 69 -85 75 -91 5 -6 21 -26 35
-44 14 -18 30 -38 35 -44 10 -11 318 -385 342 -416 6 -8 47 -58 90 -110 44
-52 115 -140 160 -195 92 -114 376 -460 401 -490 10 -11 44 -54 77 -95 33 -41
65 -79 71 -85 6 -5 48 -57 95 -115 46 -58 97 -121 114 -141 16 -20 46 -56 65
-80 19 -24 58 -71 85 -104 86 -102 679 -825 705 -860 14 -18 95 -117 180 -220
85 -104 188 -229 229 -279 41 -50 104 -127 140 -171 36 -44 73 -89 83 -100 9
-11 62 -76 118 -145 117 -144 156 -192 225 -275 28 -33 79 -96 115 -140 35
-44 67 -82 70 -85 3 -3 44 -52 90 -110 46 -58 87 -107 90 -110 3 -3 44 -52 90
-110 47 -58 87 -107 90 -110 3 -3 35 -41 70 -85 35 -44 67 -82 70 -85 3 -3 75
-90 159 -195 85 -104 168 -206 185 -226 17 -19 41 -48 53 -63 11 -15 35 -44
51 -64 17 -21 99 -120 182 -222 84 -102 166 -203 185 -225 18 -22 78 -96 134
-165 57 -69 110 -134 119 -145 9 -11 37 -45 61 -75 25 -30 50 -59 56 -65 29
-26 44 -59 34 -76 -9 -17 -12 -17 -67 3 -139 50 -151 56 -305 165 -67 48 -151
107 -187 132 -36 25 -67 48 -70 51 -3 3 -52 39 -109 80 -57 41 -120 87 -140
102 -20 14 -65 47 -101 72 -49 34 -565 408 -819 594 -34 24 -1014 733 -1086
785 -33 24 -116 84 -185 134 -69 50 -141 99 -160 109 -145 76 -245 68 -363
-29 -245 -200 -455 -418 -755 -782 -111 -133 -392 -502 -462 -605 -13 -19 -27
-37 -30 -40 -13 -12 -176 -259 -259 -393 -184 -297 -338 -590 -446 -847 -15
-36 -33 -78 -40 -95 -31 -69 -465 -1217 -471 -1245 0 -3 -5 -16 -11 -30 -17
-41 -192 -568 -220 -660 -32 -107 -111 -407 -117 -440 -2 -14 -9 -44 -15 -68
-7 -24 -14 -55 -16 -70 -2 -15 -13 -74 -25 -132 -27 -134 -24 -117 -59 -310
-17 -91 -33 -176 -36 -190 -3 -14 -8 -45 -11 -70 -3 -25 -8 -47 -9 -50 -2 -3
-6 -26 -10 -50 -4 -25 -13 -79 -21 -120 -8 -41 -14 -92 -14 -112 l0 -38 4088
0 c16348 -1 20615 0 20619 3 6 7 5 59 -2 87 -4 14 -10 41 -15 60 -4 19 -35
141 -68 270 -34 129 -63 246 -66 260 -3 14 -37 149 -76 300 -40 151 -73 282
-75 290 -2 8 -13 49 -24 90 -11 41 -42 163 -70 270 -71 274 -135 519 -166 630
-14 52 -32 118 -40 145 -218 795 -385 1252 -585 1610 -80 142 -374 553 -436
610 -6 6 -33 37 -60 70 -27 33 -58 69 -69 80 -11 11 -38 41 -59 65 -22 25 -81
90 -133 146 -177 192 -195 223 -198 339 -2 50 3 96 13 124 17 51 123 228 617
1029 198 320 365 591 370 600 18 31 267 436 290 472 13 19 148 239 301 488
154 248 287 464 296 480 9 15 23 37 30 49 7 12 36 60 64 105 152 247 243 394
449 728 72 116 137 223 146 238 9 15 94 153 189 307 95 154 198 321 228 370
30 50 65 106 78 125 12 19 116 188 231 375 116 187 249 403 298 480 141 223
172 279 185 332 28 109 -5 133 -180 128 -63 -2 -126 -7 -140 -11 -14 -4 -405
-8 -870 -9 -760 -2 -904 -5 -990 -20 -126 -23 -465 -23 -628 0 -94 13 -118 16
-132 20 -8 2 -35 7 -60 10 -63 9 -328 70 -430 100 -104 29 -170 48 -189 51
-35 7 -33 24 10 80 198 255 281 375 382 552 190 331 345 747 462 1242 12 51
15 68 19 90 3 14 12 61 21 104 16 84 17 91 34 201 25 167 35 330 35 540 0 555
-94 915 -330 1266 -103 154 -166 229 -320 383 -222 223 -465 424 -749 618
-107 73 -352 228 -361 228 -2 0 -23 12 -47 27 -191 121 -703 365 -1046 499
-92 36 -175 69 -186 74 -11 5 -146 55 -300 110 -620 224 -622 225 -699 304
-21 22 -49 63 -62 90 l-23 51 -5 2315 c-2 1273 -7 2335 -10 2359 -37 302 -71
439 -138 553 -115 194 -305 297 -615 333 -26 3 -64 8 -83 11 -19 2 -107 7
-195 10 -88 3 -168 6 -177 8 -9 2 -18 3 -20 1z"/>
</g>
</svg>
