<?xml version="1.0" standalone="no"?>
<!DOCTYPE svg PUBLIC "-//W3C//DTD SVG 20010904//EN"
 "http://www.w3.org/TR/2001/REC-SVG-20010904/DTD/svg10.dtd">
<svg version="1.0" xmlns="http://www.w3.org/2000/svg"
 width="700.000000pt" height="700.000000pt" viewBox="0 0 700.000000 700.000000"
 preserveAspectRatio="xMidYMid meet">
<metadata>
Created by potrace 1.11, written by Peter Selinger 2001-2013
</metadata>
<g transform="translate(0.000000,700.000000) scale(0.100000,-0.100000)"
fill="#000000" stroke="none">
<path d="M4797 6354 c-1 -1 -42 -5 -91 -8 -49 -4 -92 -8 -95 -10 -4 -3 -34 -8
-66 -11 -33 -4 -105 -18 -160 -30 -55 -13 -111 -26 -125 -28 -14 -3 -52 -12
-85 -20 -33 -8 -76 -18 -95 -21 -19 -3 -45 -8 -56 -10 -12 -2 -37 -7 -55 -10
-19 -3 -79 -12 -134 -21 -55 -9 -111 -18 -125 -20 -14 -2 -47 -7 -75 -11 -27
-3 -59 -8 -70 -10 -98 -21 -566 -26 -815 -9 -258 17 -378 8 -520 -36 -123 -39
-208 -111 -226 -190 -10 -45 -12 -56 -18 -94 -13 -79 -15 -107 -21 -386 -8
-389 -12 -461 -28 -477 -12 -12 -153 -55 -217 -67 -14 -2 -88 -25 -165 -50
-259 -85 -458 -197 -595 -335 -122 -122 -169 -243 -166 -428 3 -122 26 -214
81 -318 134 -255 376 -471 728 -648 76 -38 136 -71 134 -72 -5 -6 -58 -13
-144 -19 -48 -4 -104 -9 -123 -10 -19 -2 -78 -6 -130 -10 -52 -3 -115 -8 -140
-10 -25 -2 -92 -7 -150 -10 -58 -3 -120 -8 -137 -11 -53 -7 -393 -20 -601 -23
l-54 -1 44 -52 c23 -29 48 -60 55 -68 7 -8 70 -85 140 -171 70 -85 144 -175
163 -199 19 -24 102 -125 183 -224 82 -100 185 -226 230 -281 45 -55 86 -105
92 -111 5 -7 17 -20 25 -30 58 -73 148 -182 162 -199 162 -192 407 -500 398
-503 -5 -2 -29 8 -53 21 -34 21 -739 526 -772 554 -5 5 -24 14 -41 21 -42 18
-66 6 -139 -65 -69 -66 -169 -184 -225 -263 -14 -19 -32 -43 -40 -53 -50 -59
-167 -271 -213 -387 -134 -338 -196 -531 -232 -720 -7 -41 -16 -85 -19 -97 -2
-11 -7 -41 -11 -66 l-7 -44 3281 -1 3281 -1 -6 27 c-3 15 -11 45 -16 67 -6 22
-12 47 -13 55 -7 29 -74 286 -110 420 -107 397 -163 515 -339 714 -32 36 -65
74 -72 83 -22 29 -17 84 11 126 l26 37 74 0 75 0 0 124 0 124 38 61 c149 241
288 467 292 476 5 10 43 71 85 135 21 32 172 278 331 538 34 57 60 109 58 117
-5 11 -61 13 -317 9 -329 -5 -406 -5 -447 0 -59 9 -186 39 -194 46 -4 5 12 37
36 72 144 205 218 449 213 700 -3 134 -26 215 -83 304 -101 154 -353 337 -612
444 -41 17 -84 35 -95 40 -11 5 -64 25 -119 45 -54 19 -111 42 -126 50 -59 30
-57 7 -57 656 -1 578 -4 674 -24 750 -17 66 -86 116 -174 126 -40 5 -194 10
-198 7z m1185 -3244 c-18 -11 -48 -36 -67 -56 -20 -20 -38 -34 -42 -31 -3 3 1
12 8 20 29 28 111 87 122 87 7 0 -3 -9 -21 -20z m-4007 -178 c-3 -3 -11 0 -18
7 -9 10 -8 11 6 5 10 -3 15 -9 12 -12z m45 -12 c8 -5 11 -10 5 -10 -5 0 -17 5
-25 10 -8 5 -10 10 -5 10 6 0 17 -5 25 -10z"/>
</g>
</svg>
